<svg xmlns="http://www.w3.org/2000/svg" viewBox="0 0 512 512" width="512" height="512">
  <!-- Blue circular background -->
  <circle cx="256" cy="256" r="256" fill="#4c8bf5"/>
  
  <!-- Chat bubble shape (white) -->
  <path fill="white" d="M128 120c-17.7 0-32 14.3-32 32v160c0 17.7 14.3 32 32 32h73.8l10.6 32H128c-17.7 0-32 14.3-32 32s14.3 32 32 32h128c12.9 0 24.5-7.8 29.5-19.6l29.9-70.8c10.9-3.9 20.6-9.9 28.6-17.9c20-20 28-45.5 28-72.8s-8-52.7-28-72.8c-37.4-37.4-98.3-37.4-135.6 0c-20 20-28 45.5-28 72.8V320h-32V160c0-53 43-96 96-96s96 43 96 96v16c0 17.7 14.3 32 32 32s32-14.3 32-32V160c0-88.4-71.6-160-160-160s-160 71.6-160 160v192c0 17.7 14.3 32 32 32h96v-48H128V152c0-17.7 14.3-32 32-32h192c17.7 0 32 14.3 32 32v64c0 17.7-14.3 32-32 32s-32-14.3-32-32V160c0-53-43-96-96-96s-96 43-96 96c0-17.7 14.3-32 32-32h192z"/>
</svg> 